PathFileType	4	(X/Y/Z)	OpenSim_Sub09_EMGStiffKnee_Magnet.trc
DataRate	CameraRate	NumFrames	NumMarkers	Units	OrigDataRate	OrigDataStartFrame	OrigNumFrames
100	100	20	8	m	100	1897	7584
Frame#	Time	torso_imu_offset_imu	pelvis_imu_offset_imu	tibia_r_imu_offset_imu	femur_r_imu_offset_imu	tibia_l_imu_offset_imu	femur_l_imu_offset_imu	toes_r_imu_offset_imu	toes_l_imu_offset_imu
				X1	Y1	Z1	X2	Y2	Z2	X3	Y3	Z3	X4	Y4	Z4	X5	Y5	Z5	X6	Y6	Z6	X7	Y7	Z7	X8		Y8	Z8	

1897	18.96000000	-0.92141053	-0.16984435	0.06776114	-0.58462610	0.27874704	-0.67095857	-0.76973741	-0.31235739	-0.21588615	-0.83819846	-0.16328719	-0.05238789	-0.47223523	0.65381390	0.19639578	-0.60534016	0.50762286	0.26660294	-0.46759208	0.06484492	-0.64196866	-0.78050904	-0.03842991	-0.32226858
1898	18.97000000	-0.91893765	-0.16070708	0.06229023	-0.57783864	0.27060903	-0.67086225	-0.76938987	-0.32265666	-0.20656799	-0.83912643	-0.16268809	-0.04555815	-0.46362855	0.66198637	0.18739337	-0.60198465	0.51668289	0.26257646	-0.47394864	0.06485793	-0.63575185	-0.78327384	-0.02635513	-0.31154028
1899	18.98000000	-0.92501734	-0.16685306	0.06648283	-0.58980752	0.26835910	-0.67290592	-0.76697208	-0.33149969	-0.20165081	-0.83258252	-0.16301659	-0.04061230	-0.45297757	0.67308898	0.18207662	-0.59967766	0.52117542	0.26558177	-0.47579415	0.05928058	-0.63305525	-0.78528800	-0.02310553	-0.29385379
1900	18.99000000	-0.92340096	-0.15918287	0.06521252	-0.59031935	0.25655917	-0.67281487	-0.76703970	-0.33552244	-0.19344557	-0.83839521	-0.15927147	-0.03843435	-0.44215054	0.68029707	0.17255352	-0.59539087	0.52794894	0.25321294	-0.49010783	0.04889551	-0.62866519	-0.79584915	-0.01978430	-0.28195405
1901	19	-0.92977395	-0.16004123	0.05621625	-0.59438966	0.24537433	-0.67016641	-0.76256572	-0.34723638	-0.17605263	-0.83719217	-0.15453071	-0.03484670	-0.42891728	0.68414552	0.16982884	-0.59716389	0.52819158	0.23968377	-0.52373388	0.03836541	-0.59658747	-0.80605504	-0.00855754	-0.26950827
1902	19.01000000	-0.92386125	-0.16161182	0.05558072	-0.58595614	0.23922171	-0.67104139	-0.76192215	-0.35958398	-0.15628994	-0.83672947	-0.15857101	-0.01713939	-0.41827274	0.69902233	0.16246849	-0.59769000	0.53400370	0.22305320	-0.56372204	0.02211615	-0.57082662	-0.80872185	-0.00859731	-0.24695043
1903	19.02000000	-0.92552624	-0.14652229	0.05349629	-0.58917375	0.23237846	-0.68269241	-0.76203025	-0.34746900	-0.15818695	-0.83321058	-0.15896884	-0.00483677	-0.40300956	0.71112356	0.15922743	-0.59786376	0.54274073	0.22476284	-0.58560885	0.00086669	-0.54343163	-0.81111578	0.00562891	-0.23184304
1904	19.03000000	-0.92804916	-0.14979214	0.04866985	-0.58802067	0.23579270	-0.68144589	-0.76269721	-0.35512152	-0.14986995	-0.82660984	-0.16058899	0.00295467	-0.39178294	0.71510161	0.15182910	-0.59810929	0.54922660	0.21011687	-0.60354670	-0.00720476	-0.52417481	-0.81594484	0.01308744	-0.20044275
1905	19.04000000	-0.92612907	-0.14473784	0.05059129	-0.58560871	0.23851548	-0.68312374	-0.74949370	-0.37791411	-0.14268862	-0.82980379	-0.16301725	0.00104677	-0.37860234	0.72861893	0.15519719	-0.59842135	0.55829131	0.20457662	-0.62911457	-0.00899696	-0.50161162	-0.82043537	0.02055122	-0.18642460
1906	19.05000000	-0.92795773	-0.13927095	0.04639459	-0.58515806	0.23997596	-0.68438239	-0.74641324	-0.39737964	-0.12084867	-0.83270614	-0.15991310	0.00305452	-0.36778638	0.72679632	0.14935923	-0.59821504	0.55735614	0.19577775	-0.63651017	-0.01980688	-0.48434102	-0.82793528	0.04217125	-0.15618360
1907	19.06000000	-0.93244848	-0.14364920	0.04812326	-0.58983709	0.25047272	-0.67111925	-0.73392130	-0.41597976	-0.09972033	-0.83306451	-0.14435251	-0.00041222	-0.34820667	0.74061896	0.14749483	-0.60207761	0.55023337	0.19151896	-0.64614478	-0.01656753	-0.46571001	-0.83140466	0.05357975	-0.13454061
1908	19.07000000	-0.92844928	-0.13989013	0.04663754	-0.58986099	0.24734956	-0.66979112	-0.72642514	-0.43523567	-0.07705780	-0.83727914	-0.12662961	0.01387408	-0.33900814	0.75290486	0.14926347	-0.60497681	0.55396397	0.17664407	-0.65862817	-0.02187069	-0.44890072	-0.82799590	0.07450689	-0.11744186
1909	19.08000000	-0.93436663	-0.13922433	0.04171818	-0.59587000	0.24658730	-0.66798413	-0.71822023	-0.44635471	-0.05583715	-0.84202919	-0.12416138	0.02450389	-0.32020351	0.75384267	0.14674725	-0.60464935	0.55474009	0.16636809	-0.66718057	-0.02695745	-0.43366892	-0.82622622	0.09486573	-0.08846604
1910	19.09000000	-0.93276381	-0.14380698	0.04345602	-0.59844648	0.24868514	-0.66754024	-0.71095297	-0.45503204	-0.04368062	-0.83848678	-0.11435602	0.02208953	-0.29940534	0.75496305	0.15038707	-0.61271124	0.55034815	0.16599101	-0.67405458	-0.02705662	-0.42714700	-0.82643617	0.10989774	-0.06992812
1911	19.10000000	-0.93222932	-0.13962504	0.04791682	-0.60081975	0.24875257	-0.66998662	-0.71088861	-0.45748259	-0.03286094	-0.83819459	-0.10901848	0.02573585	-0.28628127	0.76975402	0.15235981	-0.62168113	0.54405100	0.16417057	-0.67405998	-0.02758955	-0.41889510	-0.82965636	0.13343718	-0.04463216
1912	19.11000000	-0.93530095	-0.14155163	0.04651400	-0.59730938	0.24897662	-0.67026764	-0.70485233	-0.46474507	-0.01879896	-0.83851085	-0.11450546	0.03249783	-0.26659000	0.77783827	0.14901208	-0.62611908	0.53507749	0.15995042	-0.68164658	-0.02347766	-0.41455437	-0.82865883	0.15343312	-0.01022302
1913	19.12000000	-0.92630446	-0.13783981	0.04369441	-0.59214992	0.24498960	-0.66975850	-0.69665900	-0.47957566	-0.01330530	-0.83369183	-0.12648446	0.04426922	-0.25480372	0.77551372	0.15388352	-0.63013683	0.53225981	0.15360362	-0.68705806	-0.02734009	-0.40815329	-0.82519507	0.17566948	0.00673702
1914	19.13000000	-0.93627638	-0.13730544	0.04576089	-0.59410328	0.24435018	-0.67393623	-0.68120711	-0.48781954	-0.00260764	-0.83766822	-0.14127380	0.05233053	-0.23971102	0.78163343	0.14841261	-0.63471222	0.53056935	0.14640225	-0.68075854	-0.02558107	-0.40613168	-0.81761608	0.18906362	0.02400334
1915	19.14000000	-0.93320122	-0.13764857	0.04573485	-0.59252823	0.24698943	-0.67908335	-0.68188591	-0.50447181	0.00971040	-0.82735762	-0.15332225	0.05681200	-0.22554642	0.78416417	0.16257410	-0.63825894	0.52215076	0.14602608	-0.68644356	-0.02719673	-0.39986421	-0.80437149	0.20644199	0.04475279
1916	19.15000000	-0.93262443	-0.13520465	0.04828784	-0.59190729	0.24110350	-0.67698097	-0.67600095	-0.51009485	0.01278134	-0.82819102	-0.17162614	0.06967039	-0.21880049	0.78853289	0.16826958	-0.65112969	0.51513605	0.14821858	-0.68294913	-0.02966835	-0.39932758	-0.80164540	0.22203472	0.05976947
